<?xml version="1.0" encoding="UTF-8"?>
<svg id="Layer_2" xmlns="http://www.w3.org/2000/svg" viewBox="0 0 538.73 527.54">
  <defs>
    <style>
      .cls-1 {
        fill: #fff;
      }
    </style>
  </defs>
  <g id="Layer_1-2" data-name="Layer_1">
    <g>
      <circle class="cls-1" cx="274.95" cy="263.77" r="66.79"/>
      <circle class="cls-1" cx="404.57" cy="65.39" r="57.63"/>
      <circle class="cls-1" cx="404.57" cy="461.57" r="57.63"/>
      <circle class="cls-1" cx="57.63" cy="156.05" r="57.63"/>
      <path class="cls-1" d="M274.95,151.27c30.05,0,58.3,11.7,79.55,32.95,21.25,21.25,32.95,49.5,32.95,79.55s-11.7,58.3-32.95,79.55c-21.25,21.25-49.5,32.95-79.55,32.95s-58.3-11.7-79.55-32.95c-21.25-21.25-32.95-49.5-32.95-79.55s11.7-58.3,32.95-79.55c21.25-21.25,49.5-32.95,79.55-32.95M274.95,110.27c-84.77,0-153.5,68.72-153.5,153.5s68.72,153.5,153.5,153.5,153.5-68.72,153.5-153.5-68.72-153.5-153.5-153.5h0Z"/>
      <path class="cls-1" d="M274.95,51c56.83,0,110.26,22.13,150.45,62.32,40.19,40.19,62.32,93.62,62.32,150.45s-22.13,110.26-62.32,150.45-93.62,62.32-150.45,62.32-110.26-22.13-150.45-62.32-62.32-93.62-62.32-150.45,22.13-110.26,62.32-150.45c40.19-40.19,93.62-62.32,150.45-62.32M274.95,0C129.28,0,11.18,118.09,11.18,263.77s118.09,263.77,263.77,263.77,263.77-118.09,263.77-263.77S420.63,0,274.95,0h0Z"/>
    </g>
  </g>
</svg>